<?xml version="1.0" standalone="no"?>
<!DOCTYPE svg PUBLIC "-//W3C//DTD SVG 20010904//EN"
 "http://www.w3.org/TR/2001/REC-SVG-20010904/DTD/svg10.dtd">
<svg version="1.0" xmlns="http://www.w3.org/2000/svg"
 width="193.000000pt" height="323.000000pt" viewBox="0 0 193.000000 323.000000"
 preserveAspectRatio="xMidYMid meet">

<g transform="translate(0.000000,323.000000) scale(0.100000,-0.100000)"
fill="#000000" stroke="none">
<path d="M915 3169 c-62 -13 -123 -33 -160 -52 -64 -34 -185 -151 -185 -178 0
-27 29 -30 53 -6 68 69 126 109 177 123 30 9 71 22 92 29 20 8 82 15 140 17
l103 2 83 -53 c45 -29 95 -68 110 -85 41 -48 106 -81 212 -107 52 -12 96 -23
98 -24 2 -2 -4 -21 -13 -43 -9 -22 -15 -53 -13 -69 3 -24 8 -28 38 -31 63 -6
105 -66 140 -202 29 -108 56 -82 48 48 -3 56 -10 79 -39 128 -19 32 -49 68
-66 79 -30 19 -32 22 -26 70 7 63 -1 70 -88 78 -103 9 -142 30 -243 132 -50
50 -103 98 -117 107 -14 9 -66 23 -115 32 -49 9 -98 18 -109 20 -11 3 -65 -4
-120 -15z"/>
<path d="M313 2798 c-37 -35 -63 -79 -139 -231 -51 -103 -96 -206 -99 -230 -9
-57 10 -159 42 -227 51 -110 110 -226 134 -261 13 -20 32 -51 41 -68 28 -51
91 -36 71 17 -4 9 -26 46 -50 82 -24 36 -46 76 -49 90 -3 14 -20 66 -39 115
-48 131 -55 162 -56 263 -1 88 1 94 43 184 47 97 118 206 162 247 30 28 33 46
10 55 -23 9 -20 10 -71 -36z"/>
<path d="M1397 2683 c-14 -13 -7 -32 14 -38 19 -6 21 -13 17 -56 -7 -70 -61
-168 -145 -265 -82 -94 -112 -113 -187 -121 -74 -8 -86 9 -51 75 35 68 59 185
44 215 -27 50 -62 59 -104 25 -38 -30 -53 -72 -61 -168 -7 -78 -9 -84 -48
-127 -46 -49 -83 -62 -182 -63 -51 0 -65 4 -88 25 -33 30 -33 50 0 148 42 126
12 142 -47 25 -57 -112 -45 -184 38 -242 33 -23 57 -31 103 -34 56 -4 66 -1
164 48 99 50 106 52 122 35 24 -24 58 -35 107 -35 37 0 54 9 139 75 107 82
175 163 214 254 l27 61 21 -28 c49 -66 174 -172 203 -172 28 0 24 41 -9 83
-18 23 -37 45 -42 49 -60 41 -127 111 -146 151 -31 64 -81 103 -103 80z m-377
-282 c0 -20 -28 -56 -37 -47 -5 5 25 66 32 66 3 0 5 -9 5 -19z"/>
<path d="M1731 2336 c-7 -9 -30 -49 -51 -89 -60 -117 -69 -267 -25 -397 14
-41 25 -83 25 -94 0 -76 -54 -161 -184 -293 -77 -80 -95 -93 -123 -93 -18 0
-52 -5 -77 -12 -38 -10 -50 -9 -92 9 -27 11 -93 26 -147 33 -89 12 -100 11
-115 -4 -23 -23 -5 -48 40 -59 l35 -8 -32 -67 c-18 -37 -36 -84 -40 -104 -8
-44 -14 -46 -52 -14 -15 12 -39 29 -53 36 -14 7 -68 41 -120 76 -52 34 -108
66 -125 70 -54 13 -56 19 -18 95 19 39 39 98 45 132 7 34 20 70 30 80 32 32
22 51 -42 82 -71 34 -93 56 -108 111 -19 67 -16 84 16 84 15 0 38 -7 50 -16
30 -20 52 -11 52 21 0 53 -94 106 -146 83 -26 -12 -42 -52 -50 -133 -5 -47 -3
-54 37 -114 24 -35 58 -76 76 -90 18 -14 33 -34 33 -44 0 -30 -39 -136 -65
-178 -25 -39 -26 -39 -90 -39 -86 0 -100 -19 -97 -129 1 -42 5 -84 8 -93 3
-11 -4 -24 -17 -35 -102 -81 -114 -99 -142 -198 -15 -53 -38 -118 -51 -143
-13 -26 -27 -72 -31 -102 -4 -30 -14 -68 -22 -85 -11 -20 -18 -80 -24 -190 -5
-88 -11 -171 -14 -185 -6 -32 7 -53 31 -48 17 3 20 17 25 123 4 66 14 151 23
188 9 38 16 83 16 100 0 18 11 64 25 102 13 39 25 83 25 98 0 44 61 186 95
223 17 18 44 36 61 39 46 10 102 36 108 50 12 33 16 106 8 158 -11 70 -2 73
62 18 24 -21 78 -55 118 -75 40 -20 98 -54 128 -76 30 -22 71 -49 90 -60 19
-10 86 -69 149 -130 63 -60 119 -110 125 -110 7 0 20 -13 29 -30 14 -22 16
-41 11 -78 -4 -33 -1 -68 9 -103 9 -30 21 -83 27 -119 6 -36 27 -97 46 -136
19 -38 39 -97 44 -130 11 -67 44 -169 61 -190 12 -15 46 -18 73 -8 18 7 23 83
7 100 -17 16 -74 217 -81 284 -6 50 -16 80 -47 130 -47 76 -70 158 -54 189 30
54 -3 174 -56 207 -15 10 -50 36 -78 58 -27 22 -51 41 -53 42 -3 2 27 192 34
217 4 13 11 16 22 11 10 -4 42 -16 72 -26 52 -18 58 -18 107 -3 29 9 55 21 59
26 3 6 36 24 73 41 99 44 169 96 199 148 14 25 31 52 38 60 6 8 28 47 48 86
32 63 36 80 36 147 0 48 -9 110 -25 171 -14 53 -25 111 -25 129 0 53 39 179
67 216 19 25 24 38 16 49 -14 22 -28 25 -42 8z"/>
<path d="M1463 2095 c-42 -29 -25 -115 22 -115 29 0 38 25 33 86 -3 44 -21 53
-55 29z"/>
<path d="M946 2027 c-22 -16 -26 -78 -7 -101 30 -36 91 -1 91 53 0 52 -45 77
-84 48z"/>
<path d="M1357 1983 c-17 -16 -6 -75 18 -98 46 -47 75 -24 44 35 -10 19 -20
43 -23 53 -5 17 -27 23 -39 10z"/>
<path d="M1370 1674 c-14 -8 -37 -12 -51 -9 -34 8 -58 -18 -38 -41 19 -23 93
-13 125 17 45 42 20 65 -36 33z"/>
</g>
</svg>
